<?xml version="1.0" encoding="iso-8859-1"?>
<!-- Generator: Adobe Illustrator 18.1.1, SVG Export Plug-In . SVG Version: 6.00 Build 0)  -->
<svg version="1.1" id="Capa_1" xmlns="http://www.w3.org/2000/svg" xmlns:xlink="http://www.w3.org/1999/xlink" x="0px" y="0px"
	 viewBox="0 0 504.903 504.903" style="enable-background:new 0 0 504.903 504.903;" xml:space="preserve">
<g>
	<g>
		<path style="fill:#010002;" d="M371.791,79.56c-7.344,0-12.546-1.428-15.604-4.284c-3.063-2.856-4.593-7.548-4.593-14.076V39.78
			V18.36c0-6.937,1.53-11.73,4.593-14.382C359.247,1.326,364.449,0,371.791,0c7.752,0,13.158,1.326,16.218,3.978
			c3.063,2.652,4.593,7.446,4.593,14.382v21.42V61.2c0,6.528-1.53,11.22-4.593,14.076C384.949,78.132,379.543,79.56,371.791,79.56z
			 M133.111,79.56c-7.344,0-12.546-1.428-15.606-4.284s-4.59-7.548-4.59-14.076V39.78V18.36c0-6.937,1.53-11.73,4.59-14.382
			C120.565,1.326,125.767,0,133.111,0c7.752,0,13.158,1.326,16.218,3.978s4.59,7.446,4.59,14.382v21.42V61.2
			c0,6.528-1.53,11.22-4.59,14.076S140.863,79.56,133.111,79.56z M467.264,39.78c2.445,0,4.59,0.816,6.426,2.448
			s2.754,3.672,2.754,6.12v90.576c0,2.448-0.918,4.488-2.754,6.12s-3.979,2.448-6.426,2.448H37.639c-2.448,0-4.59-0.816-6.426-2.448
			s-2.754-3.672-2.754-6.12V48.348c0-2.448,0.918-4.488,2.754-6.12c1.836-1.632,3.978-2.448,6.426-2.448h46.512V61.2
			c0,5.712,0.816,11.322,2.448,16.83s4.386,10.506,8.262,14.994c3.876,4.488,8.976,8.16,15.3,11.016s13.974,4.284,22.95,4.284
			s16.626-1.428,22.95-4.284s11.526-6.528,15.606-11.016s6.936-9.486,8.568-14.994c1.632-5.508,2.448-11.118,2.448-16.83V39.78
			h140.148V61.2c0,5.712,0.816,11.322,2.448,16.83s4.386,10.506,8.262,14.994s8.979,8.16,15.3,11.016
			c6.324,2.856,13.977,4.284,22.95,4.284c8.979,0,16.626-1.428,22.95-4.284s11.526-6.528,15.606-11.016
			c4.077-4.488,6.936-9.486,8.565-14.994c1.632-5.508,2.448-11.118,2.448-16.83V39.78H467.264L467.264,39.78z M365.671,260.1
			c0-2.854-1.632-4.282-4.896-4.282h-18.36c-0.813,0-1.428,0.204-1.836,0.609l-52.632,25.704c-1.632,1.227-2.448,2.856-2.448,4.896
			l4.284,29.985c0,0.816,0.204,1.431,0.612,1.839c0.405,0.405,0.813,1.02,1.224,1.836c1.224,0.813,2.652,0.813,4.284,0l23.868-9.183
			v121.179c0,2.854,1.428,4.282,4.281,4.282h36.723c3.264,0,4.896-1.428,4.896-4.282V260.1L365.671,260.1z M177.787,439.416
			c23.256,0,41.922-5.304,55.998-15.912c14.076-10.605,21.114-24.888,21.114-42.84c0-13.056-3.672-22.848-11.016-29.376
			c-7.344-6.528-15.096-11.424-23.256-14.688c19.584-8.977,29.376-22.849,29.376-41.614c0-12.648-5.508-22.746-16.524-30.294
			s-25.704-11.322-44.064-11.322c-20.4,0-37.332,3.06-50.796,9.18c-2.04,1.632-2.856,3.267-2.448,4.896l4.284,29.985
			c0,1.635,0.612,2.652,1.836,3.063c1.224,1.224,2.652,1.428,4.284,0.612c11.424-6.12,22.644-9.183,33.66-9.183
			c10.2,0,16.116,1.53,17.748,4.59c1.632,3.063,2.448,5.61,2.448,7.65c0,3.264-1.836,6.834-5.508,10.71
			c-3.672,3.876-12.852,6.222-27.54,7.038c-2.856,0-4.284,1.428-4.284,4.284v30.6c0,2.856,1.428,4.284,4.284,4.284
			c17.136,0.816,28.152,2.958,33.048,6.426c4.896,3.471,7.344,8.67,7.344,15.606c0,5.304-2.448,9.588-7.344,12.852
			c-4.896,3.267-11.22,4.896-18.972,4.896c-7.344,0-14.178-0.612-20.502-1.836c-6.324-1.227-12.954-3.063-19.89-5.509
			c-1.224-0.407-2.448-0.407-3.672,0c-1.224,0.814-1.836,1.837-1.836,3.061l-4.284,30.6c-0.816,2.04,0,3.471,2.448,4.284
			c6.528,2.856,13.668,4.896,21.42,6.12S170.443,439.416,177.787,439.416z M467.264,178.704c2.445,0,4.59,0.816,6.426,2.448
			s2.754,3.672,2.754,6.12V495.72c0,2.448-0.918,4.593-2.754,6.429s-3.979,2.754-6.426,2.754H37.639
			c-2.448,0-4.59-0.918-6.426-2.754s-2.754-3.98-2.754-6.429V187.272c0-2.448,0.918-4.488,2.754-6.12s3.978-2.448,6.426-2.448
			H467.264L467.264,178.704z"/>
	</g>
</g>
<g>
</g>
<g>
</g>
<g>
</g>
<g>
</g>
<g>
</g>
<g>
</g>
<g>
</g>
<g>
</g>
<g>
</g>
<g>
</g>
<g>
</g>
<g>
</g>
<g>
</g>
<g>
</g>
<g>
</g>
</svg>
