<?xml version="1.0" encoding="UTF-8" standalone="no"?>
<svg width="84px" height="86px" viewBox="0 0 84 86" version="1.1" xmlns="http://www.w3.org/2000/svg" xmlns:xlink="http://www.w3.org/1999/xlink" xmlns:sketch="http://www.bohemiancoding.com/sketch/ns">
    <!-- Generator: Sketch Beta 3.4 (14718) - http://www.bohemiancoding.com/sketch -->
    <title>google-def</title>
    <desc>Created with Sketch Beta.</desc>
    <defs></defs>
    <g id="Page-1" stroke="none" stroke-width="1" fill="none" fill-rule="evenodd" sketch:type="MSPage">
        <g id="google-def" sketch:type="MSLayerGroup" fill="#DC4A38">
            <g id="Group" sketch:type="MSShapeGroup">
                <g id="Shape">
                    <path d="M44.479,48.845 L40.496,45.752 C39.283,44.746 37.624,43.418 37.624,40.987 C37.624,38.546 39.283,36.994 40.723,35.557 C45.363,31.905 49.999,28.018 49.999,19.827 C49.999,11.404 44.699,6.973 42.159,4.871 L49.008,4.871 L56.197,0.354 L34.418,0.354 C28.442,0.354 19.83,1.768 13.525,6.973 C8.773,11.073 6.455,16.726 6.455,21.815 C6.455,30.454 13.088,39.211 24.801,39.211 C25.907,39.211 27.117,39.102 28.335,38.989 C27.788,40.32 27.235,41.428 27.235,43.309 C27.235,46.74 28.998,48.844 30.552,50.837 C25.575,51.179 16.284,51.73 9.435,55.94 C2.912,59.819 0.927,65.465 0.927,69.45 C0.927,77.652 8.658,85.292 24.689,85.292 C43.699,85.292 53.763,74.773 53.763,64.36 C53.764,56.709 49.344,52.943 44.479,48.845 L44.479,48.845 Z M30,36.107 C20.49,36.107 16.182,23.813 16.182,16.395 C16.182,13.507 16.729,10.525 18.61,8.196 C20.383,5.978 23.471,4.539 26.354,4.539 C35.522,4.539 40.277,16.943 40.277,24.921 C40.277,26.917 40.057,30.454 37.515,33.011 C35.737,34.785 32.762,36.107 30,36.107 L30,36.107 Z M30.109,80.65 C18.283,80.65 10.657,74.993 10.657,67.127 C10.657,59.263 17.728,56.603 20.161,55.722 C24.801,54.161 30.772,53.943 31.768,53.943 C32.873,53.943 33.426,53.943 34.306,54.054 C42.713,60.037 46.362,63.019 46.362,68.683 C46.362,75.542 40.723,80.65 30.109,80.65 L30.109,80.65 Z"></path>
                    <path d="M72.393,35.938 L72.393,24.863 L66.923,24.863 L66.923,35.938 L55.866,35.938 L55.866,41.469 L66.923,41.469 L66.923,52.612 L72.393,52.612 L72.393,41.469 L83.506,41.469 L83.506,35.938 L72.393,35.938 Z"></path>
                </g>
            </g>
        </g>
    </g>
</svg>