<?xml version="1.0" encoding="UTF-8" standalone="no"?>
<svg width="145px" height="144px" viewBox="0 0 145 144" version="1.1" xmlns="http://www.w3.org/2000/svg" xmlns:xlink="http://www.w3.org/1999/xlink" xmlns:sketch="http://www.bohemiancoding.com/sketch/ns">
    <!-- Generator: Sketch Beta 3.4 (14718) - http://www.bohemiancoding.com/sketch -->
    <title>Fill 1 + Fill 4 + Fill 5</title>
    <desc>Created with Sketch Beta.</desc>
    <defs></defs>
    <g id="Page-1" stroke="none" stroke-width="1" fill="none" fill-rule="evenodd" sketch:type="MSPage">
        <g id="In-2C-CMYK-2in-TM" sketch:type="MSLayerGroup">
            <g id="Group-3" sketch:type="MSShapeGroup">
                <g id="Fill-1-+-Fill-4-+-Fill-5">
                    <path d="M133.344,0 L10.629,0 C4.765,0 0,4.648 0,10.376 L0,133.611 C0,139.345 4.765,144 10.629,144 L133.344,144 C139.219,144 144.004,139.345 144.004,133.611 L144.004,10.376 C144.004,4.648 139.219,0 133.344,0" id="Fill-1" fill="#0071A1"></path>
                    <path d="M32.034,19.826 C38.862,19.826 44.412,25.375 44.412,32.205 C44.412,39.042 38.862,44.591 32.034,44.591 C25.188,44.591 19.648,39.042 19.648,32.205 C19.648,25.375 25.188,19.826 32.034,19.826 L32.034,19.826 Z M21.35,53.985 L42.709,53.985 L42.709,122.707 L21.35,122.707 L21.35,53.985 Z" id="Fill-4" fill="#FFFFFF"></path>
                    <path d="M56.106,53.985 L76.591,53.985 L76.591,63.376 L76.877,63.376 C79.728,57.973 86.696,52.277 97.086,52.277 C118.715,52.277 122.708,66.511 122.708,85.011 L122.708,122.707 L101.364,122.707 L101.364,89.287 C101.364,81.318 101.217,71.067 90.265,71.067 C79.153,71.067 77.446,79.748 77.446,88.71 L77.446,122.707 L56.106,122.707 L56.106,53.985" id="Fill-5" fill="#FFFFFF"></path>
                </g>
            </g>
        </g>
    </g>
</svg>